<?xml version="1.0" standalone="no"?>
<!DOCTYPE svg PUBLIC "-//W3C//DTD SVG 20010904//EN"
 "http://www.w3.org/TR/2001/REC-SVG-20010904/DTD/svg10.dtd">
<svg version="1.0" xmlns="http://www.w3.org/2000/svg"
 width="179.000000pt" height="179.000000pt" viewBox="0 0 179.000000 179.000000"
 preserveAspectRatio="xMidYMid meet">

<g transform="translate(0.000000,179.000000) scale(0.100000,-0.100000)"
fill="#000000" stroke="none">
<path d="M170 1673 c1 -36 377 -1537 386 -1540 10 -3 80 62 599 562 132 127
312 300 400 385 88 84 160 158 160 164 0 6 -144 52 -320 102 -176 51 -518 149
-760 218 -241 69 -445 126 -452 126 -7 0 -13 -8 -13 -17z m200 -64 c80 -23
148 -44 152 -48 4 -3 -47 -57 -113 -120 -66 -62 -122 -112 -124 -110 -6 6 -75
286 -75 303 0 9 3 16 7 16 4 0 73 -18 153 -41z m383 -110 c78 -22 144 -43 146
-45 7 -7 -211 -224 -224 -224 -6 0 -26 62 -44 138 -19 75 -36 145 -39 155 -6
23 0 23 161 -24z m-158 -118 c20 -83 35 -154 34 -159 -4 -9 -295 70 -307 83
-6 6 217 224 229 224 4 1 23 -66 44 -148z m538 8 c78 -22 144 -43 147 -46 3
-3 -49 -56 -115 -118 l-120 -114 -37 147 c-41 162 -43 172 -27 172 6 0 74 -18
152 -41z m-160 -120 c21 -84 35 -154 32 -157 -7 -7 -305 79 -305 88 0 10 219
220 228 220 4 0 24 -68 45 -151z m544 10 c75 -21 138 -41 141 -44 7 -6 -167
-185 -209 -216 l-27 -19 -36 148 c-20 81 -39 155 -42 165 -5 16 -2 18 16 12
12 -4 83 -24 157 -46z m-165 -121 c20 -84 34 -155 32 -157 -3 -3 -302 77 -312
84 -5 4 224 225 233 225 6 0 27 -69 47 -152z m-892 71 c80 -23 149 -44 153
-48 4 -4 -45 -58 -109 -120 -64 -62 -119 -109 -124 -105 -6 7 -80 292 -80 309
0 9 9 6 160 -36z m387 -111 c84 -24 153 -45 153 -49 0 -3 -54 -56 -120 -117
l-119 -113 -10 38 c-6 21 -22 88 -36 148 -14 61 -28 116 -30 123 -6 17 -7 17
162 -30z m-153 -132 c20 -82 34 -151 32 -154 -7 -6 -305 78 -311 88 -7 12 225
234 234 224 5 -5 25 -76 45 -158z m533 22 c84 -24 153 -46 153 -50 0 -13 -234
-228 -240 -221 -6 7 -80 292 -80 308 0 9 12 6 167 -37z m-192 10 c44 -178 71
-298 66 -298 -7 0 -112 30 -255 72 l-69 20 119 113 c65 63 122 114 126 114 4
1 10 -9 13 -21z m-327 -223 c3 -3 -5 -16 -19 -28 -13 -13 -66 -63 -116 -112
-51 -49 -96 -86 -99 -82 -7 6 -74 281 -74 302 0 9 45 -1 151 -31 84 -24 154
-46 157 -49z m276 -76 c55 -16 102 -32 105 -35 6 -6 -218 -223 -229 -224 -5 0
-81 295 -80 312 0 7 17 3 204 -53z m-200 -104 c21 -86 37 -158 34 -160 -5 -5
-295 78 -304 88 -7 6 212 225 226 226 3 1 23 -69 44 -154z m-130 -149 c83 -23
151 -47 153 -53 2 -5 -51 -60 -117 -122 -76 -71 -122 -108 -125 -99 -8 24 -75
297 -75 307 0 15 -3 16 164 -33z"/>
</g>
</svg>
